<?xml version="1.0" encoding="UTF-8"?>
<svg width="76px" height="32px" viewBox="0 0 76 32" version="1.1" xmlns="http://www.w3.org/2000/svg" xmlns:xlink="http://www.w3.org/1999/xlink">
    <title>logo</title>
    <defs>
        <linearGradient x1="2.0689608%" y1="102.416238%" x2="100.396796%" y2="-3.60672617%" id="linearGradient-1">
            <stop stop-color="#003EFF" offset="0%"></stop>
            <stop stop-color="#FF257B" offset="50%"></stop>
            <stop stop-color="#FFB700" offset="100%"></stop>
        </linearGradient>
    </defs>
    <g id="重置" stroke="none" stroke-width="1" fill="none" fill-rule="evenodd">
        <g id="抵押-暗" transform="translate(-388.000000, -27.000000)" fill-rule="nonzero">
            <g id="导航" transform="translate(388.000000, 23.000000)">
                <g id="logo" transform="translate(0.000000, 4.000000)">
                    <g id="编组" transform="translate(25.000000, 4.354545)" fill="#FFFFFF">
                        <g id="组_1" transform="translate(22.066433, 4.920726)">
                            <polygon id="直线_3" points="3.78104547 0.530486336 3.78104547 21.0190006 0.106107219 21.0190006 0.106107219 0.530486336"></polygon>
                            <path d="M0.106107219,0.0354068832 L0.106107219,14.1252188 L6.53011914,14.1252188 C10.3071112,14.1252188 13.3689682,11.0848735 13.3689682,7.33441757 L13.3689682,6.82620809 C13.3689682,3.07575214 10.3071112,0.0354068832 6.53011914,0.0354068832 L0.106107219,0.0354068832 Z M3.78078619,10.4758422 L3.78078619,3.6842686 L6.53011914,3.68452605 C8.27749882,3.68452605 9.69402993,5.09110502 9.69402993,6.82620809 L9.69402993,7.33441757 C9.69402993,9.06952065 8.27749882,10.4760996 6.53011914,10.4760996 L3.78078619,10.4758422 Z" id="矩形_1"></path>
                        </g>
                        <path d="M43.5913576,4.85418216 C39.6379523,4.85418216 36.4330839,8.03653393 36.4330839,11.9621638 C36.4330839,15.8877935 39.6379523,19.0701453 43.5913576,19.0701453 C47.544763,19.0701453 50.7496312,15.8877935 50.7496312,11.9621638 C50.7496312,8.03653393 47.544763,4.85418216 43.5913576,4.85418216 Z M43.5913576,8.50330133 C45.5151506,8.50330133 47.074693,10.0518868 47.074693,11.9621638 C47.074693,13.8724407 45.5151506,15.4210262 43.5913576,15.4210262 C41.6675645,15.4210262 40.1080222,13.8724407 40.1080222,11.9621638 C40.1080222,10.0518868 41.6675645,8.50330133 43.5913576,8.50330133 Z" id="椭圆_1"></path>
                        <g id="组_2" transform="translate(0.018807, 0.000000)">
                            <polygon id="直线_4" points="13.4027435 0.0220728327 13.4027435 19.0467173 9.7278053 19.0467173 9.7278053 0.0220728327"></polygon>
                            <polygon id="直线_5" points="3.79356044 0.031855994 3.79356044 19.037449 0.118622188 19.037449 0.118622188 0.031855994"></polygon>
                        </g>
                        <g id="组_3" transform="translate(0.499739, 4.835719)">
                            <path d="M0.00845421042,0.963555075 C3.88623241,-0.264242816 8.04515829,-0.295724813 11.9373543,0.869109084 L12.2440688,0.963555075 L11.1276444,4.44020857 C7.96978123,3.44035309 4.58385189,3.41094558 1.41257306,4.35198602 L1.12487862,4.44020857 L0.00845421042,0.963555075 Z" id="路径_2"></path>
                        </g>
                        <polygon id="直线_1" points="19.6793688 4.92034724 19.6793688 19.0462023 16.0044305 19.0462023 16.0044305 4.92034724"></polygon>
                        <polygon id="直线_2" points="19.6793688 0.031855994 19.6793688 2.93436548 16.0044305 2.93436548 16.0044305 0.031855994"></polygon>
                    </g>
                    <polygon id="路径_3" fill="url(#linearGradient-1)" points="10.7809984 0.354545455 7.73107892 5.32975021 0 5.32975021 0 23.3540293 8.03596351 23.3540293 8.03596351 7.2682221 10.7826087 2.69299491 10.7826087 23.3545455 20 23.3545455 20 0.354545455"></polygon>
                </g>
            </g>
        </g>
    </g>
</svg>